<?xml version="1.0" standalone="no"?>
<!DOCTYPE svg PUBLIC "-//W3C//DTD SVG 20010904//EN"
 "http://www.w3.org/TR/2001/REC-SVG-20010904/DTD/svg10.dtd">
<svg version="1.0" xmlns="http://www.w3.org/2000/svg"
 width="373.000000pt" height="137.000000pt" viewBox="0 0 373.000000 137.000000"
 preserveAspectRatio="xMidYMid meet">

<g transform="translate(0.000000,137.000000) scale(0.100000,-0.100000)"
fill="#000000" stroke="none">
<path d="M3030 765 l0 -305 55 0 55 0 0 53 c1 53 28 105 49 92 6 -3 29 -37 53
-75 l43 -70 63 0 c34 0 62 4 62 8 0 4 -31 56 -70 116 -38 59 -70 110 -70 114
0 4 34 46 75 92 l76 85 -68 3 -68 3 -72 -78 -72 -78 -1 173 0 172 -55 0 -55 0
0 -305z"/>
<path d="M300 756 l0 -296 133 0 c72 0 149 5 169 10 74 21 128 89 128 162 -1
43 -33 113 -59 127 -20 11 -20 11 4 48 31 44 34 120 8 165 -34 57 -81 72 -240
76 l-143 4 0 -296z m250 171 c17 -9 26 -22 28 -44 4 -44 -26 -63 -100 -63
l-58 0 0 60 0 60 53 0 c28 0 63 -6 77 -13z m15 -231 c41 -18 55 -55 32 -90
-17 -26 -54 -36 -128 -36 l-49 0 0 70 0 70 55 0 c31 0 71 -6 90 -14z"/>
<path d="M1703 993 l-43 -15 0 -167 c0 -101 5 -182 12 -202 26 -77 97 -136
186 -154 l32 -7 0 61 c0 48 -3 61 -15 61 -32 0 -77 32 -91 65 -8 19 -14 57
-14 85 l0 50 60 0 60 0 0 55 0 55 -60 0 -60 0 0 65 c0 72 0 72 -67 48z"/>
<path d="M2070 869 c-56 -25 -95 -62 -123 -114 -18 -33 -22 -62 -25 -168 l-4
-128 58 3 59 3 3 115 c2 104 5 117 28 147 15 19 40 37 64 44 l40 12 0 54 c0
51 -1 53 -27 53 -16 0 -48 -10 -73 -21z"/>
<path d="M760 746 c0 -127 1 -137 28 -187 65 -125 241 -135 319 -17 27 40 28
47 31 190 l3 148 -55 0 -56 0 0 -114 c0 -120 -11 -170 -40 -186 -30 -16 -64
-12 -88 10 -21 19 -22 30 -22 155 l0 135 -60 0 -60 0 0 -134z"/>
<path d="M1295 866 c-70 -31 -124 -115 -125 -192 0 -56 43 -139 89 -169 53
-35 120 -49 167 -36 48 13 54 8 24 -24 -30 -32 -71 -40 -108 -21 -28 15 -30
14 -68 -25 l-39 -40 25 -19 c61 -46 168 -50 231 -7 86 59 116 145 106 303 -9
124 -41 185 -119 225 -44 22 -138 25 -183 5z m156 -125 c21 -22 29 -39 29 -66
0 -107 -161 -132 -189 -30 -27 100 87 168 160 96z"/>
<path d="M2270 860 c-68 -36 -120 -117 -120 -188 0 -106 99 -212 198 -213 20
0 81 0 135 1 l97 0 0 209 0 210 -137 0 c-114 -1 -144 -4 -173 -19z m149 -104
c93 -49 49 -186 -59 -186 -48 0 -90 47 -90 100 0 79 76 123 149 86z"/>
<path d="M2735 864 c-144 -75 -167 -252 -45 -356 86 -74 212 -67 288 15 l24
25 -46 32 -46 31 -27 -20 c-37 -30 -86 -27 -124 7 -26 24 -32 36 -32 72 0 36
6 48 32 72 38 34 87 37 125 7 l26 -20 45 32 45 33 -22 24 c-56 59 -174 82
-243 46z"/>
</g>
</svg>
