<svg height="100%" width="100%" id="bg-svg" viewBox="0 0 1440 600" xmlns="http://www.w3.org/2000/svg" class="transition duration-300 ease-in-out delay-150"><path d="M 0,600 C 0,600 0,200 0,200 C 110.12440191387557,153.07177033492823 220.24880382775115,106.14354066985646 311,128 C 401.75119617224885,149.85645933014354 473.12918660287085,240.49760765550238 560,240 C 646.8708133971292,239.50239234449762 749.2344497607656,147.86602870813397 860,147 C 970.7655502392344,146.13397129186603 1089.933014354067,236.03827751196172 1188,260 C 1286.066985645933,283.9617224880383 1363.0334928229665,241.98086124401914 1440,200 C 1440,200 1440,600 1440,600 Z" stroke="none" stroke-width="0" fill="#0dff4988" class="transition-all duration-300 ease-in-out delay-150"></path><path d="M 0,600 C 0,600 0,400 0,400 C 113.29186602870814,386.9856459330143 226.58373205741628,373.9712918660287 313,390 C 399.4162679425837,406.0287081339713 458.9569377990431,451.10047846889955 544,464 C 629.0430622009569,476.89952153110045 739.5885167464114,457.6267942583732 857,422 C 974.4114832535886,386.3732057416268 1098.688995215311,334.39234449760767 1197,328 C 1295.311004784689,321.60765550239233 1367.6555023923445,360.8038277511962 1440,400 C 1440,400 1440,600 1440,600 Z" stroke="none" stroke-width="0" fill="#0dff49ff" class="transition-all duration-300 ease-in-out delay-150"></path></svg>